<svg xmlns="http://www.w3.org/2000/svg" viewBox="0 0 48 48">
  <defs>
    <style>.cls-2{fill:#b2e5fb}.cls-3{fill:#9dcc6b}.cls-4{fill:#b5e08c}</style>
  </defs>
  <g id="_36._Ozon" data-name="36. Ozon">
    <path d="M38 24a14 14 0 0 1-14 14c-13.18 0-19-16.59-8.84-24.84A14 14 0 0 1 38 24z"
      style="fill:#9fdbf3" />
    <path class="cls-2" d="M38 24c0 17.56-26 14.91-26-2 0-17.6 26-15 26 2z" />
    <path class="cls-3"
      d="M24.61 13.65c-1.22 1.83-3 0-4.26.61s.27 2 .61 3.65c.61 3.05-2.44 1.83-3.66 2.44-1.54.76-.28 3.49-1.82 4.26-2.51 1.27-4.17-1.52-4.87-4.26-.45-1.28 3.8-10.29 13.31-10.35.31 0 1.63 2.23.69 3.65z" />
    <path class="cls-4"
      d="M23.61 11.65c-1.22 1.83-3 0-4.26.61s.27 2 .61 3.65c.61 3.05-2.44 1.83-3.66 2.44-1.54.76-.28 3.49-1.82 4.26A1.71 1.71 0 0 1 12 20.94c.28-3.66 2.22-7 3.28-7.92a14 14 0 0 1 8.6-3 2.24 2.24 0 0 1-.27 1.63z" />
    <path class="cls-3"
      d="M19.13 27a4.76 4.76 0 0 1 2.44 1.83c.6 1.22 2.47 0 3 1.22S24.22 32 23 32.22a2 2 0 0 0-1.57 1.93c-.06.55-1 1.17-1.72-1-.61-1.83-2.5-2-3-3s-.01-3.72 2.42-3.15z" />
    <path class="cls-3"
      d="M23 32.22a2.06 2.06 0 0 0-1.57 1.93c-.06.57-1 1.13-1.72-1-.61-1.83-2.5-2-3-3a2.33 2.33 0 0 1 .78-2.93c1.38-.74 3.54.62 4.09 1.71s2.47 0 3 1.19c.02.18 1 1.54-1.58 2.1zM34.35 23.84c-.43 1.29.61 4.26-.61 6.09-.69 1-2.37 1.7-3 1a2.77 2.77 0 0 1-.07-2.83c.5-1.26.6-3-1.22-3.65s-3.65.61-4.26-2.43c-.38-1.89 1.47-2.69 2.43-3.66 1.83-1.82 0-2.43.61-4.26.37-1.1 1.84-1.76 2.95-2.1a14 14 0 0 1 6.46 9 5.17 5.17 0 0 0-3.29 2.84z" />
    <path class="cls-4"
      d="M37.67 21a5.19 5.19 0 0 0-3.32 2.87c-.37 1.11.35 3.47-.22 5.27-1.78.58-2.13-1.28-1.43-3 .5-1.26.6-3-1.22-3.65s-3.65.61-4.26-2.43c-.31-1.56.54-1.43 1.09-2.53 0-.1.76-.53 1.34-1.13 1.73-1.72.19-2.36.54-4a8.13 8.13 0 0 1 1-.39A14 14 0 0 1 37.67 21z" />
    <path class="cls-2"
      d="M24 44a20 20 0 1 1 20-20 20 20 0 0 1-20 20zm0-38a18 18 0 1 0 18 18A18 18 0 0 0 24 6z" />
    <path class="cls-2"
      d="M22 46.93a1 1 0 0 1 2 .07 1 1 0 0 1-2-.07zm5.12.86a1 1 0 0 1-.8-1.6c.35-.48.61-.3 2.61-.74A1 1 0 0 1 30 47c-.42.57-2.58.79-2.89.79zm-8.2-.36a15.53 15.53 0 0 1-2.3-.59 1 1 0 0 1 .62-1.9c1.94.62 2.2.44 2.52 1a1 1 0 0 1-.85 1.49zm14.15-1.28a1 1 0 0 1-.93-1.38 1 1 0 1 1 .93 1.38zM12.25 43.8a1 1 0 0 1 1.76.94 1 1 0 0 1-1.76-.94zm24.43.39a1 1 0 0 1-1-1.2c.15-.64.45-.53 2-1.8A1 1 0 0 1 39 42.76c-1.36 1.06-1.94 1.43-2.32 1.43zM9.68 43c-.54 0-1.1-.54-2.24-1.63a1 1 0 0 1 1.38-1.45c1.47 1.41 1.79 1.34 1.86 2a1 1 0 0 1-1 1.08zm30.65-3.81a1 1 0 0 1 2-.13 1 1 0 0 1-2 .13zM4.82 36.74c1-.73 2.28.82 1.18 1.62a1 1 0 0 1-1.18-1.62zm38-.71c-.15-.63.19-.71 1-2.49a1 1 0 0 1 1.84.1c.21.6-.19 1.21-1.06 2.66a1 1 0 0 1-1.82-.3zM3.29 35c-.87 0-1.14-1-1.75-2.54a1 1 0 0 1 1.87-.71c.23.61.49 1.22.78 1.81a1 1 0 0 1-.9 1.44zm42.89-3.9c-1.46 0-1.22-2.37.26-2a1 1 0 0 1-.26 2.02zm-44.81-2a1 1 0 1 1 1-1.18 1 1 0 0 1-1 1.23zm45.54-2.09a1 1 0 0 1-.77-.36c-.4-.47-.14-.7-.14-2.7a1 1 0 1 1 2-.1c0 1.42.21 3.21-1.09 3.21zM0 24c0-1.45-.16-3.1 1.17-3S2 22.6 2 24a1 1 0 1 1-2 0zm46.62-3.2a1 1 0 0 1-1-.82 1 1 0 1 1 1 .82zM.84 17.67a1 1 0 0 1 1.93.52 1 1 0 0 1-1.93-.52zm44.67-.84c-.93 0-.89-.75-1.72-2.45a1 1 0 0 1 1.8-.88c.3.63.59 1.29.85 2a1 1 0 0 1-.93 1.33zM2.3 14.4c-.19-.6.21-1.2 1.06-2.66a1 1 0 0 1 1.83.26c.17.62-.2.73-1 2.5a1 1 0 0 1-1.89-.1zM42 9.6a1 1 0 0 1 1.18 1.62A1 1 0 0 1 42 9.6zm-35.36.31a1 1 0 1 1 .76-.35c.1 0-.32.35-.76.35zm33.19-1.59c-.6 0-.57-.29-2.17-1.57a1 1 0 0 1 1.24-1.57c1.14.92 1.93 1.5 1.93 2.12a1 1 0 0 1-1 1.02zM9.61 7.05A1 1 0 0 1 9 5.27c.56-.45 1.14-.87 1.73-1.27a1 1 0 0 1 1.11 1.67c-1.62 1.06-1.64 1.38-2.23 1.38zM34.83 4.7c-1.71 0-1-2.65.47-1.88a1 1 0 0 1-.47 1.88zM14.9 3.87A1 1 0 0 1 14.5 2c1.5-.67 2.04 1.87.4 1.87zM31 3.1c-.29 0-.67-.22-2.21-.57a1 1 0 0 1-.76-1.19c.3-1.31 1.91-.63 3.27-.2A1 1 0 0 1 31 3.1zm-12.19-.51A1 1 0 0 1 18 1.05c.33-.52 1-.58 2.74-.83a1 1 0 0 1 .27 2c-1.48.19-1.96.37-2.2.37zM25 2a1 1 0 1 1 0-2 1 1 0 0 1 0 2z" />
    <path class="cls-4"
      d="M23 32.22c-.79.16-1.5 1.27-2.29-1.09-.73-2.19-3.2-1.82-3.26-4a2.27 2.27 0 0 1 1.68-.13c2.28.76 2.2 1.9 2.88 2.29s1.29.07 1.91.21c.92.26 1.75 2.14-.92 2.72z" />
  </g>
</svg>